<svg width="79" height="79" viewBox="0 0 79 79" fill="none" xmlns="http://www.w3.org/2000/svg">
<g id="noto:clown-face" clip-path="url(#clip0_7_47)">
<path id="Vector" d="M46.3364 11.6008C31.804 7.70691 15.7363 13.7544 11.0996 31.0589C6.42919 48.489 17.3219 61.6777 31.8735 65.5768C46.4252 69.4759 62.3895 63.7372 67.1233 46.0704C71.7503 28.551 60.8252 15.4831 46.3364 11.6008Z" fill="url(#paint0_radial_7_47)"/>
<path id="Vector_2" d="M53.4056 54.668C58.5456 56.0452 63.5681 53.968 64.6237 50.0283C65.6793 46.0887 62.3684 41.7785 57.2284 40.4013C52.0885 39.024 47.066 41.1012 46.0103 45.0409C44.9547 48.9805 48.2657 53.2907 53.4056 54.668Z" fill="url(#paint1_radial_7_47)"/>
<path id="Vector_3" d="M19.4775 45.5769C24.6174 46.9542 29.6399 44.8769 30.6956 40.9373C31.7512 36.9977 28.4402 32.6875 23.3003 31.3102C18.1603 29.933 13.1378 32.0102 12.0822 35.9499C11.0266 39.8895 14.3376 44.1997 19.4775 45.5769Z" fill="url(#paint2_radial_7_47)"/>
<path id="Vector_4" d="M36.9194 47.6727C40.819 48.7176 44.8274 46.4034 45.8723 42.5037C46.9172 38.6041 44.603 34.5957 40.7033 33.5508C36.8037 32.5059 32.7954 34.8202 31.7505 38.7198C30.7056 42.6194 33.0198 46.6278 36.9194 47.6727Z" fill="url(#paint3_radial_7_47)"/>
<path id="Vector_5" d="M34.5432 7.52981C33.6725 7.29129 32.7476 7.34422 31.9098 7.68051C31.072 8.0168 30.3672 8.61799 29.903 9.39231C27.428 6.26519 22.8899 5.73767 19.7641 8.20781C18.5423 9.17452 17.6659 10.5133 17.2609 12.025C17.0072 12.9716 16.9458 13.9542 17.0848 14.9232C14.3895 15.5158 12.6806 18.1844 13.2732 20.8796C13.8659 23.5748 16.5345 25.2838 19.2297 24.6911C21.0509 24.2888 22.5029 22.9075 22.9856 21.1061L23.0089 21.0191C26.6936 21.6597 30.2602 19.3801 31.2281 15.7675C31.2864 15.5502 31.3446 15.3328 31.3677 15.1113C31.6883 15.3059 32.0376 15.4512 32.3998 15.5483C34.6118 16.141 36.8898 14.8258 37.4825 12.6138C38.0752 10.4018 36.76 8.1238 34.548 7.5311L34.5432 7.52981Z" fill="url(#paint4_linear_7_47)"/>
<path id="Vector_6" d="M66.5704 28.7574C68.0317 33.6006 68.0491 38.9059 66.5752 44.4069C64.3881 52.5689 59.5915 58.6859 52.7175 62.1239C46.3945 65.2437 38.7669 65.8916 31.3293 63.8987C22.607 61.5616 14.4109 55.5608 11.0288 46.5846C13.9401 56.5062 22.6438 63.1244 31.907 65.6064C39.3446 67.5994 46.9722 66.9514 53.2952 63.8316C60.1692 60.3936 64.9658 54.2766 67.1529 46.1146C68.8015 39.9616 68.5906 34.0454 66.5704 28.7574Z" fill="#ADBCC3"/>
<path id="Vector_7" d="M70.684 29.285C73.1503 26.1464 72.6034 21.6 69.46 19.1323C68.6903 18.5275 67.8087 18.0894 66.8669 17.837C65.3649 17.4346 63.7769 17.5267 62.3323 18.1076C62.2993 15.816 60.4173 13.9917 58.127 14.0199C55.8367 14.0481 54.0111 15.9349 54.0393 18.2252C54.0519 19.1253 54.3572 19.9968 54.9092 20.7079C55.4611 21.4189 56.2297 21.9309 57.0985 22.1663C57.4607 22.2634 57.8324 22.306 58.206 22.3026C58.1333 22.516 58.0763 22.7285 58.0326 22.9497C57.0646 26.5623 59.0135 30.3198 62.5249 31.6074L62.5016 31.6944C61.7921 34.3616 63.376 37.1051 66.0432 37.8146C68.7105 38.5241 71.4539 36.9402 72.1634 34.2729C72.6461 32.4715 72.0793 30.5493 70.7033 29.2902L70.684 29.285Z" fill="url(#paint5_linear_7_47)"/>
<path id="Vector_8" d="M32.5168 25.4665C30.4931 24.9243 28.195 26.1409 27.434 28.9808C26.6731 31.8206 28.0564 34.0185 30.08 34.5607C32.1084 35.1042 34.4018 33.8863 35.1614 31.0513C35.9211 28.2163 34.5645 26.0152 32.5168 25.4665Z" fill="#422B0D"/>
<path id="Vector_9" d="M31.8391 27.3193C31.5506 27.0734 31.1766 26.9514 30.7985 26.98C30.4205 27.0087 30.069 27.1855 29.8208 27.4721C29.4212 27.9396 29.365 28.613 29.6835 29.1435C30.2814 29.6557 31.1849 29.5872 31.7019 28.9907C32.1015 28.5232 32.1577 27.8498 31.8391 27.3193Z" fill="#896024"/>
<path id="Vector_10" d="M52.4969 30.8202C50.4733 30.278 48.1751 31.4946 47.4142 34.3344C46.6533 37.1742 48.0365 39.3722 50.0602 39.9144C52.0838 40.4566 54.382 39.24 55.1416 36.405C55.9012 33.57 54.5206 31.3624 52.4969 30.8202Z" fill="#422B0D"/>
<path id="Vector_11" d="M51.8097 32.6704C51.5211 32.4244 51.1471 32.3025 50.769 32.3311C50.391 32.3597 50.0396 32.5366 49.7913 32.8232C49.3917 33.2907 49.3355 33.9641 49.6541 34.4946C50.2519 35.0068 51.1554 34.9383 51.6724 34.3418C52.072 33.8743 52.1282 33.2009 51.8097 32.6704Z" fill="#896024"/>
<path id="Vector_12" d="M34.4675 57.3063C28.3145 55.6576 24.7846 51.2902 24.0045 48.9278C23.8445 48.5458 23.791 48.1276 23.8498 47.7177C23.9086 47.3078 24.0774 46.9215 24.3384 46.5999C24.7199 46.2 25.295 46.0435 25.8298 46.192C26.0278 46.245 26.2167 46.3319 26.3883 46.4452C29.4522 48.3417 32.7823 49.7697 36.2684 50.6817C39.7261 51.6289 43.309 52.0506 46.8949 51.9399C47.1001 51.9276 47.3058 51.9517 47.5051 51.9999C48.0425 52.1387 48.4623 52.5618 48.5928 53.0988C48.658 53.5078 48.611 53.9268 48.457 54.3112C48.3029 54.6956 48.0475 55.031 47.718 55.2818C45.8611 56.9376 40.6253 58.9563 34.4675 57.3063Z" fill="#422B0D" stroke="url(#paint6_linear_7_47)" stroke-width="4" stroke-miterlimit="10"/>
</g>
<defs>
<radialGradient id="paint0_radial_7_47" cx="0" cy="0" r="1" gradientUnits="userSpaceOnUse" gradientTransform="translate(39.105 38.5888) rotate(15) scale(28.475 28.475)">
<stop offset="0.5" stop-color="white"/>
<stop offset="0.76" stop-color="#FDFDFD"/>
<stop offset="0.87" stop-color="#F6F6F6"/>
<stop offset="0.96" stop-color="#E9E9E9"/>
<stop offset="1" stop-color="#E0E0E0"/>
</radialGradient>
<radialGradient id="paint1_radial_7_47" cx="0" cy="0" r="1" gradientUnits="userSpaceOnUse" gradientTransform="translate(55.3222 47.5115) rotate(15) scale(10.485 7.65405)">
<stop stop-color="#ED7770"/>
<stop offset="0.08" stop-color="#ED7770" stop-opacity="0.97"/>
<stop offset="0.21" stop-color="#ED7770" stop-opacity="0.88"/>
<stop offset="0.35" stop-color="#ED7770" stop-opacity="0.74"/>
<stop offset="0.52" stop-color="#ED7770" stop-opacity="0.55"/>
<stop offset="0.71" stop-color="#ED7770" stop-opacity="0.29"/>
<stop offset="0.9" stop-color="#ED7770" stop-opacity="0"/>
</radialGradient>
<radialGradient id="paint2_radial_7_47" cx="0" cy="0" r="1" gradientUnits="userSpaceOnUse" gradientTransform="translate(21.395 38.4207) rotate(15) scale(10.485 7.65405)">
<stop stop-color="#ED7770"/>
<stop offset="0.08" stop-color="#ED7770" stop-opacity="0.97"/>
<stop offset="0.21" stop-color="#ED7770" stop-opacity="0.88"/>
<stop offset="0.35" stop-color="#ED7770" stop-opacity="0.74"/>
<stop offset="0.52" stop-color="#ED7770" stop-opacity="0.55"/>
<stop offset="0.71" stop-color="#ED7770" stop-opacity="0.29"/>
<stop offset="0.9" stop-color="#ED7770" stop-opacity="0"/>
</radialGradient>
<radialGradient id="paint3_radial_7_47" cx="0" cy="0" r="1" gradientUnits="userSpaceOnUse" gradientTransform="translate(40.5002 38.0568) rotate(15) scale(10 10)">
<stop stop-color="#FF4900"/>
<stop offset="0.38" stop-color="#FE4700"/>
<stop offset="0.59" stop-color="#FA3F00"/>
<stop offset="0.76" stop-color="#F43100"/>
<stop offset="0.9" stop-color="#EB1E00"/>
<stop offset="1" stop-color="#E30C00"/>
</radialGradient>
<linearGradient id="paint4_linear_7_47" x1="28.2218" y1="5.0492" x2="23.0325" y2="24.416" gradientUnits="userSpaceOnUse">
<stop stop-color="#FF4900"/>
<stop offset="1" stop-color="#E30C00"/>
</linearGradient>
<linearGradient id="paint5_linear_7_47" x1="65.9929" y1="15.1699" x2="60.8036" y2="34.5367" gradientUnits="userSpaceOnUse">
<stop stop-color="#FF4900"/>
<stop offset="1" stop-color="#E30C00"/>
</linearGradient>
<linearGradient id="paint6_linear_7_47" x1="22.2821" y1="49.6413" x2="48.8528" y2="56.7609" gradientUnits="userSpaceOnUse">
<stop stop-color="#FF4900"/>
<stop offset="1" stop-color="#E30C00"/>
</linearGradient>
<clipPath id="clip0_7_47">
<rect width="64" height="64" fill="white" transform="translate(16.5644) rotate(15)"/>
</clipPath>
</defs>
</svg>
